<?xml version="1.0" encoding="UTF-8" standalone="no"?>
<svg width="218px" height="256px" viewBox="0 0 218 256" version="1.1" xmlns="http://www.w3.org/2000/svg" xmlns:xlink="http://www.w3.org/1999/xlink" xmlns:sketch="http://www.bohemiancoding.com/sketch/ns">
    <!-- Generator: Sketch 3.0.1 (7597) - http://www.bohemiancoding.com/sketch -->
    <title>logo</title>
    <description>Created with Sketch.</description>
    <defs></defs>
    <g id="Page-1" stroke="none" stroke-width="1" fill="none" fill-rule="evenodd" sketch:type="MSPage">
        <rect id="Rectangle-2" stroke="#979797" sketch:type="MSShapeGroup" x="-103" y="-29" width="413" height="303"></rect>
        <g id="Rectangle-6-+-Path-12-+-Path-11" sketch:type="MSLayerGroup" transform="translate(2.000000, 2.000000)">
            <path d="M76.8698493,-0.39568735 L1.13383987,77.6804333 L1.41536513,78.2149232 L1.41536513,78.2149232 C21.1839697,73.3463524 41.3668024,70.6861738 61.6123704,70.2466345 C64.6256181,46.2776099 69.7209475,22.5569067 76.8698504,-0.395691001 L76.8698493,-0.39568735 L76.8698493,-0.39568735 Z M83.1969403,0.606421592 L151.826244,82.0625939 C124.059236,74.2801167 95.5701618,70.2713688 67.1816124,70.0185446 C70.4747111,46.4410434 75.8201456,23.1554017 83.1969403,0.606421592 L83.1969403,0.606421592 L83.1969403,0.606421592 Z M67.772906,202.52975 L0.0821480909,84.3205539 L0.0821480909,84.3205539 C19.9326316,79.8785601 40.180954,77.2824167 60.5485102,76.5381541 C56.0588532,118.766123 58.4234382,161.686803 67.7729119,202.529775 L67.772906,202.52975 L67.772906,202.52975 Z M69.299523,204.033966 L151.476976,85.7773209 C123.467147,78.793767 94.8182776,75.6990035 66.329462,76.4694499 C60.9934992,119.069208 61.9400208,162.429377 69.299523,204.033966 L69.299523,204.033966 L69.299523,204.033966 Z" id="Rectangle-6" fill="#FFFFFF" sketch:type="MSShapeGroup"></path>
            <path d="M74.7759668,214.785868 C74.7759668,214.785868 112.947842,250.2429 131.662686,198.903056 C150.377529,147.563212 187.979092,148.082743 205.443936,163.46165" id="Path-12" stroke="#FFFFFF" stroke-width="3" sketch:type="MSShapeGroup" transform="translate(140.049404, 190.434306) rotate(9.000000) translate(-140.049404, -190.434306) "></path>
            <path d="M76.6438255,223.877293 C76.6438255,223.877293 114.8157,259.334324 133.530544,207.99448 C152.245388,156.654636 189.84695,157.174168 207.311794,172.553074" id="Path-11" stroke="#FFFFFF" stroke-width="3" sketch:type="MSShapeGroup" transform="translate(141.917263, 199.525730) rotate(16.000000) translate(-141.917263, -199.525730) "></path>
        </g>
    </g>
</svg>